<svg width="18" height="14" viewBox="0 0 18 14" fill="none" xmlns="http://www.w3.org/2000/svg">
<path fill-rule="evenodd" clip-rule="evenodd" d="M3.1665 13.6667C2.50346 13.6667 1.86758 13.4033 1.39874 12.9345C0.929896 12.4656 0.666504 11.8297 0.666504 11.1667V2.83337C0.666504 2.17033 0.929896 1.53445 1.39874 1.06561C1.86758 0.596766 2.50346 0.333374 3.1665 0.333374H14.8332C15.4962 0.333374 16.1321 0.596766 16.6009 1.06561C17.0698 1.53445 17.3332 2.17033 17.3332 2.83337V11.1667C17.3332 11.8297 17.0698 12.4656 16.6009 12.9345C16.1321 13.4033 15.4962 13.6667 14.8332 13.6667H3.1665ZM5.354 3.85004C5.26912 3.77756 5.17053 3.72286 5.0641 3.68921C4.95767 3.65556 4.84556 3.64363 4.73443 3.65414C4.6233 3.66464 4.51541 3.69737 4.41718 3.75037C4.31894 3.80337 4.23235 3.87557 4.16255 3.96268C4.09275 4.04979 4.04116 4.15004 4.01085 4.25747C3.98053 4.3649 3.97211 4.47732 3.98608 4.58807C4.00006 4.69882 4.03613 4.80563 4.09218 4.90217C4.14822 4.9987 4.22309 5.08299 4.31234 5.15004L7.43734 7.65087C7.88074 8.00588 8.43182 8.19931 8.99984 8.19931C9.56785 8.19931 10.1189 8.00588 10.5623 7.65087L13.6873 5.15087C13.7728 5.08248 13.844 4.99792 13.8968 4.90202C13.9495 4.80612 13.9829 4.70076 13.995 4.59196C14.0071 4.48317 13.9976 4.37305 13.9671 4.26792C13.9366 4.16278 13.8857 4.06468 13.8173 3.97921C13.7489 3.89374 13.6644 3.82258 13.5685 3.76979C13.4726 3.717 13.3672 3.68362 13.2584 3.67155C13.1496 3.65948 13.0395 3.66895 12.9344 3.69943C12.8292 3.72992 12.7311 3.78081 12.6457 3.84921L9.52067 6.34921C9.37287 6.46754 9.18917 6.53202 8.99984 6.53202C8.8105 6.53202 8.62681 6.46754 8.479 6.34921L5.354 3.85004Z" fill="#FEFEFE"/>
</svg>
